<?xml version="1.0" standalone="no"?><!-- Generator: Gravit.io --><svg xmlns="http://www.w3.org/2000/svg" xmlns:xlink="http://www.w3.org/1999/xlink" style="isolation:isolate" viewBox="0 0 560 315" width="560" height="315"><defs><clipPath id="_clipPath_iRQwz1OBoYVBm9UD9mthdOy30GoJo2bk"><rect width="560" height="315"/></clipPath></defs><g clip-path="url(#_clipPath_iRQwz1OBoYVBm9UD9mthdOy30GoJo2bk)"><rect x="140" y="50" width="320" height="200" transform="matrix(1,0,0,1,0,0)" fill="rgb(70,70,70)" vector-effect="non-scaling-stroke" stroke-width="1" stroke="rgb(0,0,0)" stroke-linejoin="miter" stroke-linecap="square" stroke-miterlimit="3"/><rect x="220" y="80" width="240" height="10" transform="matrix(1,0,0,1,0,0)" fill="rgb(116,116,116)" vector-effect="non-scaling-stroke" stroke-width="1" stroke="rgb(0,0,0)" stroke-linejoin="miter" stroke-linecap="square" stroke-miterlimit="3"/><rect x="140" y="60" width="320" height="10" transform="matrix(1,0,0,1,0,0)" fill="rgb(70,70,70)"/><rect x="290" y="80" width="70" height="10" transform="matrix(1,0,0,1,0,0)" fill="rgb(70,70,70)" vector-effect="non-scaling-stroke" stroke-width="1" stroke="rgb(0,0,0)" stroke-linejoin="miter" stroke-linecap="square" stroke-miterlimit="3"/><rect x="360" y="80" width="60" height="10" transform="matrix(1,0,0,1,0,0)" fill="rgb(70,70,70)" vector-effect="non-scaling-stroke" stroke-width="1" stroke="rgb(0,0,0)" stroke-linejoin="miter" stroke-linecap="square" stroke-miterlimit="3"/><rect x="220" y="80" width="70" height="10" transform="matrix(1,0,0,1,0,0)" fill="rgb(70,70,70)" vector-effect="non-scaling-stroke" stroke-width="1" stroke="rgb(0,0,0)" stroke-linejoin="miter" stroke-linecap="square" stroke-miterlimit="3"/><rect x="140" y="50" width="320" height="10" transform="matrix(1,0,0,1,0,0)" fill="rgb(74,134,232)"/><rect x="140" y="80" width="80" height="170" transform="matrix(1,0,0,1,0,0)" fill="rgb(116,116,116)" vector-effect="non-scaling-stroke" stroke-width="1" stroke="rgb(0,0,0)" stroke-linejoin="miter" stroke-linecap="square" stroke-miterlimit="3"/><rect x="220" y="90" width="240" height="160" transform="matrix(1,0,0,1,0,0)" fill="rgb(116,116,116)" vector-effect="non-scaling-stroke" stroke-width="1" stroke="rgb(0,0,0)" stroke-linejoin="miter" stroke-linecap="square" stroke-miterlimit="3"/><g transform="matrix(1,0,0,1,140,60)"><text transform="matrix(1,0,0,1,3.459,7.482)" style="font-family:&quot;Open Sans&quot;;font-weight:400;font-size:7px;font-style:normal;fill:#000000;stroke:none;">File</text></g><g transform="matrix(1,0,0,1,140,80)"><text transform="matrix(1,0,0,1,1.373,7.482)" style="font-family:&quot;Open Sans&quot;;font-weight:400;font-size:7px;font-style:normal;fill:#000000;stroke:none;">Root</text></g><g transform="matrix(1,0,0,1,150,90)"><text transform="matrix(1,0,0,1,0,7.482)" style="font-family:&quot;Open Sans&quot;;font-weight:400;font-size:7px;font-style:normal;fill:#000000;stroke:none;">Data</text></g><g transform="matrix(1,0,0,1,160,100)"><text transform="matrix(1,0,0,1,0,7.482)" style="font-family:&quot;Open Sans&quot;;font-weight:400;font-size:7px;font-style:normal;fill:#000000;stroke:none;">Documents</text></g><g transform="matrix(1,0,0,1,160,130)"><text transform="matrix(1,0,0,1,0,7.482)" style="font-family:&quot;Open Sans&quot;;font-weight:400;font-size:7px;font-style:normal;fill:#000000;stroke:none;">References</text></g><g transform="matrix(1,0,0,1,170,140)"><text transform="matrix(1,0,0,1,0,7.482)" style="font-family:&quot;Open Sans&quot;;font-weight:400;font-size:7px;font-style:normal;fill:#000000;stroke:none;">Goods</text></g><g transform="matrix(1,0,0,1,169.464,151.25)"><text transform="matrix(1,0,0,1,0,7.482)" style="font-family:&quot;Open Sans&quot;;font-weight:400;font-size:7px;font-style:normal;fill:#000000;stroke:none;">Warehouses</text></g><g transform="matrix(1,0,0,1,170,110)"><text transform="matrix(1,0,0,1,0,7.482)" style="font-family:&quot;Open Sans&quot;;font-weight:400;font-size:7px;font-style:normal;fill:#000000;stroke:none;">Invoice</text></g><g transform="matrix(1,0,0,1,170,120)"><text transform="matrix(1,0,0,1,0,7.482)" style="font-family:&quot;Open Sans&quot;;font-weight:400;font-size:7px;font-style:normal;fill:#000000;stroke:none;">Order</text></g><g transform="matrix(1,0,0,1,160,60)"><text transform="matrix(1,0,0,1,3.541,7.482)" style="font-family:&quot;Open Sans&quot;;font-weight:400;font-size:7px;font-style:normal;fill:#000000;stroke:none;">Config</text></g><g transform="matrix(1,0,0,1,190,60)"><text transform="matrix(1,0,0,1,5.281,7.482)" style="font-family:&quot;Open Sans&quot;;font-weight:400;font-size:7px;font-style:normal;fill:#000000;stroke:none;">Tools</text></g><g transform="matrix(1,0,0,1,220,80)"><text transform="matrix(1,0,0,1,19.205,7.482)" style="font-family:&quot;Open Sans&quot;;font-weight:400;font-size:7px;font-style:normal;fill:#000000;stroke:none;">SomeFile</text></g><g transform="matrix(1,0,0,1,290,80)"><text transform="matrix(1,0,0,1,17.204,7.482)" style="font-family:&quot;Open Sans&quot;;font-weight:400;font-size:7px;font-style:normal;fill:#000000;stroke:none;">SomeFile2</text></g><g transform="matrix(1,0,0,1,360,80)"><text transform="matrix(1,0,0,1,12.204,7.482)" style="font-family:&quot;Open Sans&quot;;font-weight:400;font-size:7px;font-style:normal;fill:#000000;stroke:none;">SomeFile3</text></g></g></svg>